<?xml version="1.0" encoding="UTF-8"?>
<svg id="Layer_2" data-name="Layer 2" xmlns="http://www.w3.org/2000/svg" xmlns:xlink="http://www.w3.org/1999/xlink" viewBox="0 0 397.03 75.93">
  <defs>
    <style>
      .cls-1 {
        fill: #aa182c;
      }

      .cls-2 {
        fill: url(#linear-gradient);
      }

      .cls-3 {
        fill: #691c32;
      }
    </style>
    <linearGradient id="linear-gradient" x1="152.6" y1="33.05" x2="212.09" y2="33.05" gradientUnits="userSpaceOnUse">
      <stop offset="0" stop-color="#a71e2d"/>
      <stop offset=".17" stop-color="#89141d"/>
      <stop offset=".35" stop-color="#710c11"/>
      <stop offset=".54" stop-color="#600608"/>
      <stop offset=".75" stop-color="#560303"/>
      <stop offset="1" stop-color="#530202"/>
    </linearGradient>
  </defs>
  <g id="Working_Layer" data-name="Working Layer">
    <path class="cls-1" d="M59.16,30.98c-1.5.44-3.5,1.55-4.55,2.44,2.44,1.94,4.11,4.88,4.11,7.6,0,1.22-.33,2.39-1,3.44-2.11,3.11-6.33,4.38-10.82,4.27.17.61-.89,4.94-1.55,8.32-.39,2.16-.61,3.88-.61,5.16,0,2.61.89,3.05,1.83,3.05.72,0,1.5-.39,2.22-1.05.22-.22.39-.33.61-.22.11.17.06.39-.22.67-1.22,1.61-2.94,2.39-5.22,2.39-2.77,0-4.22-1.78-4.22-4.94,0-1.66.44-3.5,1-5.33.94-2.94,2.89-6.22,3.77-8.1-.61-.11-1.5-.33-1.5-.78s.39-.67,1.17-.67c.56,0,1.89.11,2.61.89,2.66-.39,5.38-1.89,7.55-5.6.78-1.33,1.22-2.94,1.22-4.55s-.5-3.11-1.55-4.11c-4.33,3.22-8.93,10.82-12.1,14.43-11.43,12.88-21.59,16.26-28.75,17.04,1.89.28,6.49.89,9.71.94,3.39.11,6.6-.83,7.94-2.72.11-.17.17-.33.33-.28s.11.61,0,1c-1,4.66-5.27,8.38-11.1,8.38-3.88,0-8.16-2-9.99-6.71-2.11.33-4.44,1.72-7.77,1.72-1.55,0-2.28-.39-2.28-1.11,0-1.61,2.22-2.05,4.66-2.05,1.5,0,3.33.39,5.05.44-.56-1.67-.94-4-.94-6.33,0-6.83,2.77-14.37,9.38-20.48,6.22-5.77,14.87-8.55,23.2-8.55,7.27,0,10.99,2.05,12.32,3.05,1.33-.83,3.11-1.66,4.83-2.16.44-.11,1.22-.28,1.66-.28.5,0,.89.11.83.33-.06.22-.72.11-1.83.44ZM42.4,30.53c-7.94,0-16.04,3.77-21.7,8.99-6.6,6.05-10.93,14.43-10.93,21.14,0,1.5.33,3.11.72,4.33,8.77,0,17.26-7.99,26.03-17.48,4.94-5.33,11.32-11.43,16.54-14.43-1.83-1.28-5.72-2.55-10.66-2.55ZM22.81,68.49c-3.44-.06-7.77-2.22-10.6-2.78-.5-.06-1,0-1.44.06,1.83,4.55,6.05,6.16,9.27,6.16,5.55,0,9.27-3.33,10.54-7.33-1.55,1.66-4.05,4-7.77,3.88Z"/>
    <path class="cls-1" d="M54.56,61.72c-1.28,1.44-2.22,2.72-2.22,3.44,0,.44.22.61.61.61,1.11,0,3.61-1.5,5.27-2.77,1.83-1.39,3.94-3.16,5.16-4.27.22-.11.55-.5.83-.22.22.28,0,.56-.33.83-1.11,1.05-4.11,3.5-5.27,4.38-1.83,1.33-4.33,3-6.1,3-2,0-2.89-1.05-2.89-2.72s.94-3.72,3-5.88c2.16-2.28,6.44-6.33,8.66-7.55.83-.44,4.27-.61,4.99-.55-4.77,4.27-9.77,9.43-11.71,11.71ZM67.6,47.62c-1.22,0-2.22-1-2.22-2.22s1-2.22,2.22-2.22,2.22,1,2.22,2.22-1,2.22-2.22,2.22Z"/>
    <path class="cls-1" d="M78.14,56c-.39.33-1.05.78-1.72.78-.5,0-.94-.28-.94-.94,0-.72.67-1.44,1.5-1.94,1.72-1.05,2.44-1.89,2.44-2.66,0-.28-.11-.55-.61-.55-1.28,0-4.72,2.5-9.05,6.55-3.66,3.44-4.99,5.77-4.99,7.33,0,.89.67,1.22,1.61,1.22,1.55,0,3.88-1,5.83-2.33,2.11-1.39,4.94-3.77,6.66-5.27.33-.33.61-.55.83-.33.17.17.06.39-.17.61-1.28,1.33-4.16,3.72-5.99,5.05-2.72,2-5.44,3.16-7.77,3.16-2.5,0-4.22-.94-4.22-3.22,0-2.77,1.67-5.49,4.38-7.99,4.05-3.72,9.49-5.6,12.26-5.6,1.72,0,2.33.83,2.33,2.11,0,1.5-1.11,3.05-2.39,4.05Z"/>
    <path class="cls-1" d="M99.68,51.73c-.06,1.44-1.55,3.66-4.44,6.27-1.78,1.61-3.33,3.16-4.44,4.33-1.44,1.5-2,2.28-2,2.77,0,.39.22.55.56.55,1,0,2.94-1,4.77-2.33,2-1.39,3.88-2.94,5.72-4.61.22-.11.55-.5.78-.22.28.28,0,.56-.28.83-1.67,1.5-3.66,3.22-6.16,4.94-2.16,1.44-4.33,2.55-6.27,2.55-1.44,0-2.66-.78-2.66-2.33,0-.83.39-1.89,1.17-2.94,1.44-1.94,2.5-2.94,4.77-5.05,1.67-1.61,5.66-4.33,5.66-5.55,0-.22-.11-.33-.44-.33-1.78,0-9.21,4.55-13.21,8.32-3.55,3.39-5.05,5.22-7.05,7.88-.78,0-1.22-1-1.22-2.17,0-2.44,6.55-9.77,8.88-12.32,4-4.33,11.27-11.1,15.21-13.65,1.11-.72,2-1.11,3.16-1.44,1.22-.39,3.77-.5,5.16-.44.17,0,.17.11,0,.17-1.61.39-3.44,1.67-4.44,2.39-5.05,3.72-14.32,12.54-18.92,17.7-.28.28-.06.28.06.17,3.05-2.5,9.66-7.44,13.04-7.44,1.55,0,2.61.72,2.61,1.94Z"/>
    <path class="cls-1" d="M101.23,64.55c0,.89.67,1.22,1.61,1.22,1.55,0,3.88-1,5.83-2.33,2.11-1.39,4.94-3.77,6.66-5.27.33-.33.61-.55.83-.33.17.17.06.39-.17.61-1.28,1.33-4.16,3.72-5.99,5.05-2.72,2-5.44,3.16-7.77,3.16-2.5,0-4.33-.89-4.33-3.22s1.33-4.83,3.61-7.16c3.83-3.88,10.21-6.6,13.26-6.6,1.83,0,2.22,1,2.22,1.89,0,1.05-.83,2.33-2.11,3.22-2.05,1.44-4.88,2.16-6.77,2.16-.56,0-1.05-.11-1.33-.22-3.05,2.66-5.55,5.77-5.55,7.83ZM107.5,56.45c1.11,0,3.5-.89,5.66-2.61,1.5-1.22,2.61-2.44,2.61-3.16,0-.22-.06-.33-.33-.33-1.17-.06-5.77,3.55-8.32,6.05.11.06.22.06.39.06Z"/>
    <path class="cls-1" d="M125.71,66.71c-2,0-2.83-1-2.83-2.61,0-.72.22-1.5.72-2.39-1,.83-2.11,1.72-3,2.33-2.44,1.72-4.5,2.55-6.05,2.55-1.66,0-2.83-.89-2.83-2.5,0-.72.28-1.72.78-2.61,1.05-1.94,3.66-4.83,7.16-8.38,5.99-6.1,12.21-11.71,15.98-14.26,1.22-.83,2.28-1.33,3.55-1.67,1.17-.33,3.77-.44,5.16-.39.17,0,.28.17-.06.22-1.5.33-3.55,1.61-4.55,2.33-5.66,4.27-10.88,9.38-17.09,15.76-2.39,2.5-4.88,5.05-6.49,7.05-1.05,1.28-1.72,2.39-1.72,2.94,0,.44.17.67.61.67,1,0,3.05-.89,5.33-2.5,1.22-.83,3.16-2.5,4.66-3.72.94-1.28,3.22-3.94,5.83-6.49,6.05-6.05,13.32-12.54,17.09-15.1,1.22-.78,2.33-1.33,3.39-1.66.89-.28,3.77-.44,5.16-.39.22,0,.22.17-.06.22-1.5.39-3.44,1.61-4.38,2.33-5.66,4.27-11.99,10.21-18.2,16.59-2.28,2.28-4.55,4.77-6.16,6.71-1.5,1.83-2.11,2.78-2.11,3.39,0,.44.17.61.61.61,1.11,0,3.83-1.72,5.27-2.77,1.83-1.39,3.88-3.16,5.16-4.27.17-.11.56-.5.78-.22.22.28,0,.56-.33.83-1.11,1.05-4.05,3.5-5.27,4.38-1.78,1.33-4.33,3-6.1,3Z"/>
    <path class="cls-1" d="M137.58,64.55c0,.89.67,1.22,1.61,1.22,1.55,0,3.88-1,5.83-2.33,2.11-1.39,4.94-3.77,6.66-5.27.33-.33.61-.55.83-.33.17.17.06.39-.17.61-1.28,1.33-4.16,3.72-5.99,5.05-2.72,2-5.44,3.16-7.77,3.16-2.5,0-4.33-.89-4.33-3.22s1.33-4.83,3.61-7.16c3.83-3.88,10.21-6.6,13.26-6.6,1.83,0,2.22,1,2.22,1.89,0,1.05-.83,2.33-2.11,3.22-2.05,1.44-4.88,2.16-6.77,2.16-.56,0-1.05-.11-1.33-.22-3.05,2.66-5.55,5.77-5.55,7.83ZM143.85,56.45c1.11,0,3.5-.89,5.66-2.61,1.5-1.22,2.61-2.44,2.61-3.16,0-.22-.06-.33-.33-.33-1.17-.06-5.77,3.55-8.32,6.05.11.06.22.06.39.06Z"/>
    <path class="cls-3" d="M236.57,39.19h-10.39v26.91h-4.98v-26.91h-10.44v-4.36h25.81v4.36Z"/>
    <path class="cls-3" d="M239.7,39.28v-5.33h4.84v5.33h-4.84ZM239.7,66.1v-23.04h4.84v23.04h-4.84Z"/>
    <path class="cls-3" d="M260.26,66.54c-1.82,0-3.45-.31-4.89-.94-1.44-.62-2.68-1.49-3.72-2.6-1.04-1.1-1.84-2.36-2.4-3.77-.56-1.41-.84-2.92-.84-4.52s.28-3.11.84-4.54c.56-1.43,1.36-2.68,2.4-3.77s2.29-1.95,3.74-2.57c1.45-.63,3.08-.94,4.87-.94s3.41.31,4.87.94c1.45.63,2.7,1.48,3.74,2.57,1.04,1.09,1.84,2.35,2.4,3.77.56,1.43.84,2.94.84,4.54s-.28,3.11-.84,4.52c-.56,1.41-1.36,2.67-2.4,3.77-1.04,1.11-2.29,1.97-3.74,2.6-1.45.62-3.08.94-4.87.94ZM253.39,54.76c0,1.45.31,2.75.92,3.91.62,1.16,1.44,2.07,2.47,2.74,1.03.67,2.19,1,3.48,1s2.42-.34,3.46-1.02c1.04-.68,1.87-1.61,2.49-2.78.62-1.17.92-2.47.92-3.89s-.31-2.75-.92-3.91c-.62-1.16-1.45-2.08-2.49-2.76-1.04-.68-2.2-1.02-3.46-1.02s-2.45.35-3.48,1.04c-1.03.69-1.85,1.61-2.47,2.76-.62,1.14-.92,2.45-.92,3.93Z"/>
    <path class="cls-3" d="M296.65,66.1h-4.85v-12.76c0-2.12-.35-3.67-1.04-4.66-.69-.99-1.71-1.48-3.06-1.48-.94,0-1.87.23-2.8.69-.92.46-1.75,1.09-2.49,1.88-.73.79-1.26,1.71-1.59,2.75v13.57h-4.84v-22.86h4.4v4.62c.59-1.02,1.36-1.9,2.31-2.64.95-.74,2.03-1.32,3.24-1.72,1.2-.41,2.48-.61,3.83-.61s2.52.25,3.41.74c.9.49,1.6,1.17,2.11,2.03.51.86.87,1.85,1.06,2.97s.29,2.31.29,3.56v13.92Z"/>
    <path class="cls-3" d="M310.96,66.54c-1.56,0-2.98-.32-4.27-.95-1.29-.63-2.4-1.49-3.33-2.58-.92-1.09-1.64-2.33-2.16-3.74-.51-1.41-.77-2.89-.77-4.45,0-1.64.26-3.19.79-4.62.53-1.44,1.27-2.71,2.22-3.81s2.08-1.96,3.37-2.58c1.29-.62,2.73-.92,4.32-.92,1.85,0,3.47.43,4.87,1.3,1.39.87,2.55,2,3.46,3.41v-4.36h4.27v22.26c0,2.22-.54,4.1-1.61,5.65-1.07,1.55-2.53,2.73-4.38,3.55-1.85.82-3.93,1.23-6.25,1.23-2.55,0-4.67-.44-6.34-1.32s-3.1-2.08-4.27-3.61l2.73-2.55c.88,1.23,2.02,2.17,3.41,2.82,1.39.65,2.88.97,4.47.97,1.32,0,2.55-.23,3.68-.7,1.13-.47,2.03-1.19,2.71-2.16.67-.98,1.01-2.21,1.01-3.7v-3.52c-.82,1.38-1.95,2.46-3.39,3.24-1.44.78-2.95,1.17-4.54,1.17ZM312.55,62.62c.73,0,1.44-.12,2.11-.38.67-.25,1.3-.59,1.87-1.01s1.06-.91,1.48-1.45c.41-.54.71-1.12.88-1.74v-6.03c-.38-1-.92-1.87-1.63-2.62-.7-.75-1.5-1.33-2.38-1.74-.88-.41-1.78-.62-2.69-.62-1.06,0-2,.23-2.84.68-.84.46-1.55,1.06-2.14,1.81-.59.75-1.04,1.59-1.37,2.53-.32.94-.48,1.91-.48,2.91,0,1.06.18,2.04.55,2.95.37.91.87,1.73,1.52,2.44.65.72,1.41,1.28,2.29,1.67.88.4,1.82.59,2.82.59Z"/>
    <path class="cls-3" d="M337.3,66.54c-1.94,0-3.77-.32-5.51-.95-1.73-.63-3.21-1.58-4.45-2.84l1.81-3.26c1.32,1.18,2.65,2.03,3.99,2.55,1.34.53,2.67.79,3.99.79s2.45-.25,3.3-.75c.85-.5,1.28-1.24,1.28-2.22,0-.73-.22-1.26-.66-1.61-.44-.35-1.08-.65-1.92-.92-.84-.26-1.84-.55-3.02-.87-1.64-.49-3.02-1.01-4.14-1.55-1.12-.54-1.95-1.2-2.51-1.99-.56-.79-.84-1.79-.84-3.01,0-1.48.38-2.75,1.14-3.8.76-1.05,1.83-1.85,3.19-2.4,1.37-.55,2.94-.83,4.74-.83,1.67,0,3.22.26,4.65.77,1.42.51,2.68,1.31,3.77,2.4l-2.07,3.22c-1.03-.94-2.08-1.63-3.15-2.07-1.07-.44-2.22-.66-3.46-.66-.7,0-1.38.08-2.03.24-.65.16-1.18.45-1.61.87-.43.42-.64,1.01-.64,1.76,0,.61.18,1.1.53,1.48.35.38.88.7,1.58.96.71.26,1.57.55,2.6.87,1.79.52,3.32,1.04,4.58,1.55,1.26.51,2.24,1.16,2.93,1.96.69.8,1.04,1.9,1.04,3.29,0,2.21-.83,3.93-2.49,5.16-1.66,1.24-3.87,1.85-6.63,1.85Z"/>
    <path class="cls-3" d="M360.64,66.54c-1.82,0-3.45-.31-4.89-.94-1.44-.62-2.68-1.49-3.72-2.6-1.04-1.1-1.84-2.36-2.4-3.77-.56-1.41-.84-2.92-.84-4.52s.28-3.11.84-4.54c.56-1.43,1.36-2.68,2.4-3.77s2.29-1.95,3.74-2.57c1.45-.63,3.08-.94,4.87-.94s3.41.31,4.87.94c1.45.63,2.7,1.48,3.74,2.57,1.04,1.09,1.84,2.35,2.4,3.77.56,1.43.84,2.94.84,4.54s-.28,3.11-.84,4.52c-.56,1.41-1.36,2.67-2.4,3.77-1.04,1.11-2.29,1.97-3.74,2.6-1.45.62-3.08.94-4.87.94ZM353.77,54.76c0,1.45.31,2.75.92,3.91.62,1.16,1.44,2.07,2.47,2.74,1.03.67,2.19,1,3.48,1s2.42-.34,3.46-1.02c1.04-.68,1.87-1.61,2.49-2.78.62-1.17.92-2.47.92-3.89s-.31-2.75-.92-3.91c-.62-1.16-1.45-2.08-2.49-2.76-1.04-.68-2.2-1.02-3.46-1.02s-2.45.35-3.48,1.04c-1.03.69-1.85,1.61-2.47,2.76-.62,1.14-.92,2.45-.92,3.93Z"/>
    <path class="cls-3" d="M397.03,66.1h-4.85v-12.76c0-2.12-.35-3.67-1.04-4.66-.69-.99-1.71-1.48-3.06-1.48-.94,0-1.87.23-2.8.69-.92.46-1.75,1.09-2.49,1.88-.73.79-1.26,1.71-1.59,2.75v13.57h-4.84v-22.86h4.4v4.62c.59-1.02,1.36-1.9,2.31-2.64.95-.74,2.03-1.32,3.24-1.72,1.2-.41,2.48-.61,3.83-.61s2.52.25,3.41.74c.9.49,1.6,1.17,2.11,2.03.51.86.87,1.85,1.06,2.97s.29,2.31.29,3.56v13.92Z"/>
    <path class="cls-2" d="M166.28,30.73c1.21,1.73,2.02.82,4.94,1.65s4.86,2.62,6.66,4.34,7.7,9.5,10.1,9.8,3.14-.21,3.86-.43,1.89.14,2.66-.14,1.67-1.04,2.3-1.13.59.2.7.06.52-1.34,1.37-1.37.93,1.2,1.07,1.26.79-.04,1.45.3,2.61,1.53,2.9,2.42.03,1.93.14,2.38,1.35,1.56,1.27,1.87-.33.81-.65,1.17-.83.51-1.14.6-.54.38-.77.51-1.29.51-2.11,0-2.36-1.25-3.29-1.22-2.65,1.96-2.9,2.47-.15.56.09.99,1.23,1.93,1.41,2.27,1.11,1.14,1.6,1.29,1.49.46,2.46.88,2.58,1.28,3.23,1.62,2.06.78,3.21.78,3.17-.42,3.93-.17,1.36,1.51,1.32,2.04-.48,1.15-.99,1.13-2.35-.04-2.75-.15-.67-.76-1.22-.76-2.1-.02-2.48-.04-3.57-.48-4.68-.97-3-1.11-3.91-1.03-1.28.34-1.83.1-2.23-1.6-2.75-1.83-3.23-1.51-3.8-1.97-.88-.36-1.7-.31-2.41-.1-3.57-.97-3.56-2.19-4-3.02-1.76-3.8-2-3.82-1.53,1.34-2.4,2.05-2.19,1.78-2.17,2.48-.23,1.76-.04,2.25,1.2,2.58,1.14,2.85-.35.89-.12,1.1.62.1.85.19,1.16-.17,1.61.04,1.24,1.01,1.14,1.47-.74,1.3-1.12,1.24-.52-.41-1.26-.23-1.59.39-2.05.17-.5-1.07-.7-1.41-.6-1.3-1.18-1.61-.56-2.91-1.43-4.38-2.02-1.94-2.21-2.73,1.76-2.56,1.96-3.41-.1-1.8-.5-2.67-2.09-2.87-3.33-3.68-2.73-3.33-2.81-5.81.31-7.85.51-9.41,1.72-10.55,1.88-12.95.23-6.54-.36-8.32-1.36-4.11-2.65-5.05-2.52-1.91-3.59-1.49-2.49.91-2.36,2.98.73,3.3,0,3.98-2.03.58-2.26-.87-.84-2.72.36-4.89S156.1.1,158.04,0s3.75.87,5.05,2.33,3.08,3.2,3.37,5.41.65,7.51-.06,11.07-1.72,9.62-.11,11.91Z"/>
  </g>
</svg>
